<svg width="226" height="226" viewBox="0 0 226 226" fill="none" xmlns="http://www.w3.org/2000/svg">
<ellipse cx="116.283" cy="170.186" rx="41.2828" ry="23.1862" fill="black"/>
<path d="M144 55C143.448 55 143 55.363 143 55.8115V91.1885C143 91.6363 143.447 92 144 92C144.552 92 145 91.637 145 91.1885V55.8115C145 55.3637 144.552 55.0007 144 55.0007V55Z" fill="black"/>
<path d="M144 55C143.448 55 143 55.363 143 55.8115V91.1885C143 91.6363 143.447 92 144 92C144.552 92 145 91.637 145 91.1885V55.8115C145 55.3637 144.552 55.0007 144 55.0007V55Z" stroke="black"/>
<path d="M95 66C94.4481 66 94 66.363 94 66.8115V101.189C94 101.636 94.4473 102 95 102C95.5518 102 96 101.637 96 101.189V66.8115C96 66.3637 95.5518 66 95 66Z" fill="black"/>
<path d="M95 66C94.4481 66 94 66.363 94 66.8115V101.189C94 101.636 94.4473 102 95 102C95.5518 102 96 101.637 96 101.189V66.8115C96 66.3637 95.5518 66 95 66Z" stroke="black"/>
<path d="M143 102C142.448 102 142 102.363 142 102.811V137.189C142 137.636 142.447 138 143 138C143.552 138 144 137.637 144 137.189V102.811C144 102.364 143.552 102 143 102Z" fill="black"/>
<path d="M143 102C142.448 102 142 102.363 142 102.811V137.189C142 137.636 142.447 138 143 138C143.552 138 144 137.637 144 137.189V102.811C144 102.364 143.552 102 143 102Z" stroke="black"/>
<path d="M102 130C101.448 130 101 130.521 101 131.164V153.836C101 154.478 101.447 155 102 155C102.552 155 103 154.479 103 153.836V131.164C103 130.522 102.552 130 102 130Z" fill="black"/>
<path d="M102 130C101.448 130 101 130.521 101 131.164V153.836C101 154.478 101.447 155 102 155C102.552 155 103 154.479 103 153.836V131.164C103 130.522 102.552 130 102 130Z" stroke="black"/>
<path d="M117 126C116.448 126 116 126.354 116 126.792V142.208C116 142.645 116.447 143 117 143C117.552 143 118 142.646 118 142.208V126.792C118 126.355 117.552 126 117 126Z" fill="black"/>
<path d="M117 126C116.448 126 116 126.354 116 126.792V142.208C116 142.645 116.447 143 117 143C117.552 143 118 142.646 118 142.208V126.792C118 126.355 117.552 126 117 126Z" stroke="black"/>
<path d="M85.9996 106C85.448 106 85 106.363 85 106.812L85.0009 139.188C85.0009 139.636 85.448 140 86.0004 140C86.552 140 87 139.637 87 139.188L86.9991 106.812C86.9991 106.363 86.552 106 85.9996 106Z" fill="black"/>
<path d="M85.9996 106C85.448 106 85 106.363 85 106.812L85.0009 139.188C85.0009 139.636 85.448 140 86.0004 140C86.552 140 87 139.637 87 139.188L86.9991 106.812C86.9991 106.363 86.552 106 85.9996 106Z" stroke="black"/>
<path d="M125 60C125.552 60 126 59.6314 126 59.176L125.999 33.824C125.999 33.3693 125.552 33 125 33C124.448 33 124 33.3686 124 33.824V59.176C124.001 59.6307 124.448 60 125 60Z" fill="black"/>
<path d="M125 60C125.552 60 126 59.6314 126 59.176L125.999 33.824C125.999 33.3693 125.552 33 125 33C124.448 33 124 33.3686 124 33.824V59.176C124.001 59.6307 124.448 60 125 60Z" stroke="black"/>
<path d="M129.5 83C129.776 83 130 82.6268 130 82.1656L130 67.8344C130 67.374 129.776 67 129.5 67C129.224 67 129 67.3732 129 67.8344V82.1663C129 82.6268 129.224 83 129.5 83L129.5 83Z" fill="black"/>
<path d="M129.5 83C129.776 83 130 82.6268 130 82.1656L130 67.8344C130 67.374 129.776 67 129.5 67C129.224 67 129 67.3732 129 67.8344V82.1663C129 82.6268 129.224 83 129.5 83L129.5 83Z" stroke="black"/>
<path d="M132 155C132.552 155 133 154.689 133 154.306V116.694C133 116.311 132.553 116 132 116C131.448 116 131 116.311 131 116.694V154.306C131 154.689 131.448 154.999 132 154.999V155Z" fill="black"/>
<path d="M132 155C132.552 155 133 154.689 133 154.306V116.694C133 116.311 132.553 116 132 116C131.448 116 131 116.311 131 116.694V154.306C131 154.689 131.448 154.999 132 154.999V155Z" stroke="black"/>
<path d="M113 83C113.552 83 114 82.6327 114 82.1787L113.999 49.8213C113.999 49.3681 113.552 49 113 49C112.448 49 112 49.3673 112 49.8213V82.1787C112.001 82.6327 112.448 83 113 83Z" fill="black"/>
<path d="M113 83C113.552 83 114 82.6327 114 82.1787L113.999 49.8213C113.999 49.3681 113.552 49 113 49C112.448 49 112 49.3673 112 49.8213V82.1787C112.001 82.6327 112.448 83 113 83Z" stroke="black"/>
<path d="M117.206 88.6702C116.42 88.7934 115.533 88.9058 114.572 88.9866C114.023 89.0328 113.448 89.0666 112.855 89.0874C112.577 89.0967 112.295 89.1028 112.01 89.1059C111.905 89.1074 111.803 89.1097 111.697 89.1097C109.967 89.1097 108.308 88.9627 106.732 88.6872C106.456 88.6395 106.178 88.5948 105.908 88.5394C105.514 89.3245 105.16 90.1627 104.842 91.0355C104.718 91.3773 104.6 91.7236 104.488 92.0754C103.536 95.0617 103.02 98.4223 103.001 101.778C102.993 103.164 103.065 104.549 103.232 105.905C103.4 107.271 103.655 108.585 103.99 109.841C104.739 112.648 105.898 115.159 107.418 117.298C107.593 117.545 107.776 117.785 107.961 118.021C108.187 118.31 108.421 118.591 108.661 118.865C109.757 120.115 110.993 121.208 112.368 122.111C118.326 121.419 123.799 117.741 127.805 111.725C131.164 106.679 133.202 100.335 133.2 95.0034C126.739 93.2909 121.787 89.1915 120.447 88C120.388 88.0154 120.319 88.0331 120.25 88.0508C120.031 88.107 119.761 88.1724 119.446 88.2432C118.848 88.3787 118.093 88.5303 117.206 88.6704L117.206 88.6702ZM120.016 89.8132C120.197 89.9633 120.406 90.1327 120.63 90.3089C122.733 91.9761 126.647 94.6878 131.505 96.2339C130.938 105.728 123.961 118.665 112.776 120.381C111.146 119.225 109.797 117.81 108.69 116.222C108.503 115.953 108.322 115.679 108.149 115.401C108.103 115.327 108.054 115.254 108.01 115.18C107.187 113.815 106.531 112.342 106.023 110.805C104.979 107.642 104.566 104.207 104.672 100.873C104.728 99.1118 104.929 97.3815 105.253 95.7321C105.4 94.9862 105.574 94.2604 105.771 93.5538C105.958 92.8811 106.166 92.2291 106.395 91.6018C106.545 91.1908 106.7 90.786 106.867 90.3973C108.758 90.6967 110.6 90.786 112.308 90.7559C112.592 90.7513 112.872 90.7429 113.148 90.7313C115.917 90.6174 118.253 90.2041 119.727 89.8754C119.825 89.8562 119.926 89.8331 120.016 89.8123L120.016 89.8132Z" fill="black"/>
<path d="M108.503 93.1076C107.555 95.9902 107.039 99.4792 107.163 103.004C107.234 105.008 107.511 107.022 108.037 108.943C108.855 111.938 110.274 114.706 112.441 116.856L115.457 104.12L115.658 103.273L118.158 92.7144C116.828 92.9345 115.247 93.1269 113.503 93.21C113.23 93.2231 112.953 93.2331 112.672 93.2408C111.351 93.2739 109.951 93.2416 108.503 93.1077L108.503 93.1076Z" fill="black"/>
<path d="M120.242 93.7977L117.894 103.715L117.692 104.57L114.658 117.38C122.698 114.747 127.734 105.285 128.829 97.9233C125.72 96.7079 123.066 95.1255 121.064 93.7308C120.824 93.5638 120.596 93.3999 120.375 93.239L120.242 93.7977Z" fill="black"/>
</svg>
