<svg width="226" height="226" viewBox="0 0 226 226" fill="none" xmlns="http://www.w3.org/2000/svg">
<path d="M115.46 91.1702C149.625 101.689 160.021 81.0598 160.021 81.0598C152.199 84.834 137.921 82.6832 117.309 77.4547C93.0972 71.312 70.9006 86.6099 70.9006 86.6099C70.9006 86.6099 90.749 83.5623 115.46 91.1702V91.1702Z" fill="#CCBDAD"/>
<path d="M112.639 134.928C94.6123 130.17 79.2224 145.467 79.2224 145.467C79.2224 145.467 93.561 141.775 112.032 147.889C137.57 156.343 144.044 136.53 144.044 136.53C138.534 140.402 127.983 138.979 112.639 134.928V134.928Z" fill="#CCBDAD"/>
<path d="M115.317 106.435C85.3847 98.5918 57 115.995 57 115.995C57 115.995 75.5001 111.465 112.994 120.756C156.031 131.421 168.988 110.199 168.988 110.199C160.018 113.305 145.248 114.278 115.315 106.435L115.317 106.435Z" fill="#CCBDAD"/>
</svg>
