<svg width="226" height="226" viewBox="0 0 226 226" fill="none" xmlns="http://www.w3.org/2000/svg">
<path d="M109.75 43.4073L109.355 41.2856C112.88 40.6506 114.723 43.2555 116.194 47.357C116.251 47.4229 116.309 47.4854 116.365 47.5512C119.103 50.8603 120.238 55.502 120.617 59.866C122.318 62.8191 124.664 64.7711 128.414 65.1137C120.424 58.1049 125.008 46.5881 121.98 39.3773C118.336 30.3082 108.096 31.3359 103.926 39.7779H102.763L102.087 43.4073C103.276 43.1138 104.555 42.9654 105.919 42.9654C107.284 42.9654 108.56 43.1138 109.75 43.4073L109.75 43.4073Z" fill="black"/>
<path d="M119.45 158.671C119.032 158.733 118.601 158.766 118.172 158.766C115.47 158.766 113.003 157.491 111.39 155.486L115.968 186.583C116.517 190.315 119.725 193 123.388 193C123.753 193 124.121 192.973 124.493 192.919C128.596 192.315 131.433 188.498 130.829 184.393L126.932 157.931C126.198 157.195 125.501 156.431 124.857 155.629C123.533 157.217 121.651 158.348 119.45 158.672L119.45 158.671Z" fill="black"/>
<path d="M110.75 151.145V151.146C111.299 154.878 114.509 157.563 118.172 157.563C118.536 157.563 118.904 157.537 119.275 157.482C121.275 157.187 122.969 156.126 124.115 154.644C121.476 151.056 119.657 146.914 118.556 142.551C117.615 138.828 117.196 134.951 117.208 131.132C117.225 125.628 118.149 120.252 119.75 115.635C119.901 115.201 120.056 114.771 120.218 114.352C120.749 112.977 121.339 111.675 121.989 110.476C122.647 110.631 123.305 110.765 123.96 110.88L124.47 106.438C123.584 106.835 122.684 107.238 121.764 107.651C119.027 108.877 116.138 110.173 113.193 111.501C111.365 112.327 109.516 113.166 107.662 114.012C106.824 114.394 105.986 114.778 105.149 115.163C104.779 115.333 104.413 115.503 104.045 115.673C99.1978 117.909 94.4436 120.156 90.1487 122.287C89.8429 122.439 89.536 122.591 89.2347 122.742L89.6063 125.977L86.2235 148.95L86.2224 148.959C85.6175 153.062 88.4545 156.878 92.5584 157.484C92.9289 157.539 93.2972 157.566 93.661 157.566C97.3173 157.565 100.517 154.893 101.078 151.175C101.081 151.166 101.083 151.157 101.084 151.148L104.031 131.134H107.801L110.75 151.145Z" fill="black"/>
<path d="M93.6645 158.765C93.2359 158.765 92.8062 158.733 92.3866 158.67C89.2203 158.204 86.708 156.075 85.5852 153.303L81.0072 184.391C80.4034 188.495 83.2404 192.311 87.3443 192.915C87.7159 192.969 88.0842 192.996 88.4492 192.996C92.1132 192.996 95.3209 190.312 95.87 186.579L100.447 155.485C98.8333 157.489 96.3657 158.764 93.6649 158.764L93.6645 158.765Z" fill="black"/>
<path d="M110.279 76.2425L110.191 75.1788C109.963 72.3652 110.052 68.5774 110.41 65.7526C110.722 63.3017 112.813 62.1432 114.34 61.2972C114.914 60.978 115.982 60.3865 115.982 60.1086V60.0483L115.987 59.9891C116.035 59.5159 115.983 59.1565 115.845 59.0048C115.719 58.8664 115.403 58.7849 114.979 58.7849C113.885 58.7849 112.135 59.3117 110.179 60.2291C109.19 60.6934 108.241 65.1308 108.193 69.5382L108.178 70.7268H103.656L103.643 69.5393C103.592 65.1297 102.645 60.6922 101.656 60.2291C99.6996 59.3117 97.9507 58.7849 96.8593 58.7849C96.4329 58.7849 96.1182 58.8664 95.9921 59.0048C95.8548 59.1566 95.8023 59.5159 95.8492 59.9891L95.8548 60.0483V60.1086C95.8548 60.3865 96.9229 60.978 97.4965 61.2972C99.0244 62.1432 101.115 63.3016 101.427 65.7526C101.786 68.5751 101.875 72.3631 101.648 75.1777L101.562 76.2435L100.493 76.2826C100.493 76.2826 100.41 76.286 100.264 76.2871C101.08 76.661 101.946 76.9612 102.855 77.1721C105.894 77.8797 108.931 77.498 111.562 76.2871C111.425 76.286 111.348 76.2826 111.348 76.2826L110.279 76.2425Z" fill="black"/>
<path d="M97.9788 74.9481C99.3449 75.1199 100.451 75.082 100.451 75.082C100.665 72.4246 100.591 68.7026 100.237 65.9046C99.8069 62.5241 94.6552 62.2829 94.6552 60.1089C94.2255 55.7618 100.026 58.138 102.169 59.1424C104.746 60.35 104.848 69.5264 104.848 69.5264H106.994C106.994 69.5264 107.098 60.3501 109.674 59.1424C111.818 58.1368 117.618 55.7619 117.189 60.1089C117.189 62.2819 112.036 62.5241 111.607 65.9046C111.251 68.7026 111.178 72.4257 111.393 75.082C111.393 75.082 112.491 75.1199 113.851 74.9503C115.891 74.6958 118.52 73.9715 118.906 71.9426C119.244 70.1681 120.32 62.6066 118.818 55.821C118.526 54.5029 118.137 53.2127 117.626 52.0018C116.203 48.629 113.834 45.859 109.998 44.7239C108.789 44.3667 107.439 44.1692 105.923 44.1692C104.407 44.1692 103.056 44.3678 101.847 44.7239C89.5402 48.3656 92.3537 68.8632 92.9385 71.9426C93.3213 73.9671 95.9396 74.6926 97.9788 74.9483L97.9788 74.9481Z" fill="black"/>
<path d="M130.319 103.805C130.542 104.421 130.762 105.064 130.976 105.742C131.303 106.776 131.618 107.878 131.916 109.063C131.917 109.07 131.919 109.075 131.921 109.082C132.11 109.839 132.291 110.629 132.465 111.449C132.748 111.44 133.03 111.429 133.306 111.416C136.186 111.277 138.713 110.903 140.586 110.541C141.125 110.437 141.607 110.334 142.032 110.238C141.786 109.021 141.523 107.852 141.243 106.731C141.241 106.724 141.238 106.718 141.237 106.712C140.924 105.456 140.585 104.266 140.23 103.122C139.847 101.889 139.441 100.723 139.014 99.6147C135.939 101.291 133.083 102.611 130.442 103.749C130.403 103.768 130.359 103.787 130.319 103.806L130.319 103.805Z" fill="black"/>
<path d="M136.984 89.2597C136.891 89.0086 136.789 88.7497 136.674 88.4751C131.406 75.8758 119.443 79.6326 116.574 80.7509C116.17 80.9083 115.944 81.0143 115.944 81.0143C115.944 81.0143 115.984 81.0478 116.052 81.1047C116.812 81.7397 121.594 85.7084 126.471 89.0501C127.953 90.0657 129.443 91.0233 130.833 91.8101C131.883 91.3291 132.98 90.8503 134.129 90.3782C135.047 90.001 135.996 89.6271 136.984 89.2599L136.984 89.2597Z" fill="black"/>
<path d="M66.7504 130.562C66.6164 130.029 66.5506 129.471 66.5718 128.895C66.6131 127.735 66.6689 126.597 66.7336 125.473L66.7169 125.425C66.7169 125.425 62.0238 127.286 63.1846 129.736C63.8186 131.078 65.4234 130.951 66.7503 130.562L66.7504 130.562Z" fill="black"/>
<path d="M81.7788 128.102L84.3804 126.871L83.2476 124.477C85.0422 123.52 86.9953 122.519 89.0544 121.491C89.0667 121.485 89.079 121.479 89.0913 121.473C89.5109 121.263 89.9361 121.053 90.3647 120.841C94.3704 118.865 98.7429 116.799 103.206 114.739C103.591 114.561 103.976 114.384 104.362 114.205C111.337 110.997 118.455 107.824 124.631 105.051C126.479 104.222 128.243 103.428 129.893 102.681C129.918 102.67 129.944 102.658 129.968 102.647C132.383 101.608 135.275 100.298 138.566 98.4933C143.688 95.6841 149.786 91.6661 156.625 85.5225C149.312 86.643 143.369 88.2658 138.499 89.9933C138.113 90.1306 137.738 90.2679 137.367 90.4062C136.486 90.7321 135.633 91.0603 134.827 91.3884C133.888 91.7701 133.005 92.1507 132.159 92.5279C131.69 92.7366 131.235 92.9442 130.793 93.1507C129.194 93.8962 127.756 94.6172 126.481 95.2779C126.314 95.3605 126.141 95.4453 125.973 95.529C125.886 95.5714 125.799 95.6149 125.712 95.6585C115.178 100.867 100.442 108.367 88.2261 113.943C85.2998 115.279 82.5175 116.505 79.9738 117.561L79.6457 116.867C79.3053 119.234 79.0374 121.74 78.8466 124.38C79.399 124.039 79.7484 123.811 79.7484 123.811L81.7788 128.102Z" fill="black"/>
<path d="M70.5961 106.731C69.3896 111.557 68.4946 117.248 68.028 123.99C67.9957 124.463 67.9655 124.943 67.9376 125.426C67.8707 126.568 67.8149 127.737 67.7713 128.937C67.7568 129.356 67.8015 129.761 67.8874 130.152C67.9767 130.551 68.1106 130.933 68.2926 131.289C69.0604 132.793 70.5972 133.847 72.4043 133.912C72.4634 133.914 72.5203 133.914 72.5784 133.914C75.1542 133.914 77.2869 131.873 77.3798 129.277C77.4121 128.352 77.4545 127.451 77.5025 126.567C77.5293 126.083 77.5583 125.604 77.5885 125.132C77.6867 123.622 77.8083 122.174 77.9501 120.79C77.9724 120.574 77.9947 120.361 78.0181 120.148C78.2068 118.414 78.4255 116.78 78.6733 115.242C78.7525 114.75 78.834 114.269 78.9188 113.797C79.2213 112.104 79.5572 110.53 79.9199 109.075C79.921 109.071 79.9222 109.066 79.9233 109.062C80.2213 107.876 80.5371 106.774 80.8641 105.739C82.44 100.755 84.3073 97.4546 86.0818 95.2458L88.084 112.68C97.4546 108.391 108.284 102.993 117.43 98.4301C120.184 97.0562 122.789 95.7571 125.188 94.5718C125.416 94.4591 125.652 94.3419 125.875 94.2325C125.899 94.2202 125.925 94.208 125.95 94.1957C127.078 93.612 128.268 93.0182 129.515 92.4234C128.47 91.8096 127.391 91.122 126.314 90.3988C121.169 86.9457 116.087 82.7046 115.168 81.9312L114.894 81.7001L113.765 80.7493L98.0711 80.7515L96.9428 81.7024L96.6705 81.9323C95.7519 82.7057 90.6693 86.948 85.5242 90.4C81.7508 92.9323 77.944 95.0394 75.7208 95.0394H75.7197C75.4173 95.0394 75.1516 95.0037 74.9139 94.9456C73.6941 97.295 72.5758 100.004 71.6071 103.124C71.2511 104.273 70.9107 105.467 70.5982 106.728C70.5959 106.729 70.5948 106.73 70.5948 106.731L70.5961 106.731Z" fill="black"/>
<path d="M85.3674 89.0482C90.2434 85.7068 95.0248 81.7391 95.786 81.1028C95.8552 81.0448 95.8942 81.0113 95.8942 81.0113C95.8942 81.0113 95.6688 80.9053 95.2648 80.7479C92.3942 79.6296 80.4323 75.8731 75.1634 88.4721C73.5998 92.211 74.0061 93.7033 75.515 93.8227C77.5194 93.9823 81.4715 91.7189 85.3675 89.0481L85.3674 89.0482Z" fill="black"/>
<path d="M139.016 112.039C137.876 112.218 136.59 112.381 135.197 112.498C134.401 112.565 133.567 112.614 132.707 112.644C132.304 112.658 131.895 112.667 131.481 112.671C131.329 112.673 131.181 112.677 131.028 112.677C128.519 112.677 126.113 112.464 123.828 112.064C123.429 111.995 123.025 111.93 122.633 111.85C122.062 112.988 121.549 114.204 121.088 115.469C120.908 115.965 120.737 116.467 120.574 116.977C119.195 121.307 118.446 126.18 118.418 131.046C118.407 133.056 118.511 135.064 118.754 137.03C118.997 139.011 119.366 140.917 119.852 142.737C120.938 146.808 122.619 150.449 124.823 153.551C125.077 153.909 125.343 154.256 125.611 154.599C125.939 155.018 126.277 155.426 126.625 155.823C128.214 157.635 130.007 159.219 132.001 160.529C140.639 159.526 148.576 154.192 154.384 145.469C159.256 138.152 162.21 128.954 162.208 121.223C152.839 118.739 145.658 112.795 143.715 111.068C143.629 111.09 143.53 111.116 143.43 111.141C143.113 111.223 142.721 111.318 142.264 111.42C141.397 111.617 140.301 111.837 139.016 112.04L139.016 112.039ZM143.091 113.697C143.353 113.914 143.656 114.16 143.98 114.416C147.03 116.833 152.705 120.765 159.75 123.007C158.927 136.774 148.81 155.533 132.592 158.021C130.229 156.344 128.272 154.292 126.668 151.99C126.396 151.6 126.134 151.203 125.883 150.799C125.816 150.692 125.746 150.586 125.681 150.479C124.488 148.5 123.537 146.364 122.8 144.135C121.286 139.549 120.688 134.568 120.842 129.733C120.923 127.18 121.213 124.671 121.684 122.279C121.897 121.198 122.15 120.145 122.434 119.121C122.706 118.145 123.008 117.2 123.339 116.29C123.557 115.694 123.783 115.107 124.025 114.544C126.766 114.978 129.436 115.107 131.913 115.064C132.325 115.057 132.731 115.045 133.132 115.028C137.147 114.863 140.535 114.264 142.671 113.787C142.814 113.759 142.96 113.726 143.09 113.695L143.091 113.697Z" fill="black"/>
<path d="M126.396 118.474C125.022 122.654 124.273 127.713 124.453 132.824C124.555 135.729 124.958 138.649 125.721 141.436C126.907 145.779 128.965 149.792 132.107 152.909L136.48 134.441L136.771 133.214L140.396 117.904C138.468 118.223 136.175 118.502 133.646 118.622C133.25 118.641 132.848 118.656 132.442 118.667C130.526 118.715 128.496 118.668 126.396 118.474L126.396 118.474Z" fill="black"/>
<path d="M143.419 119.474L140.013 133.854L139.72 135.094L135.321 153.669C146.979 149.851 154.282 136.131 155.869 125.456C151.362 123.694 147.512 121.399 144.61 119.377C144.262 119.135 143.931 118.897 143.61 118.664L143.419 119.474Z" fill="black"/>
</svg>
