<svg width="226" height="226" viewBox="0 0 226 226" fill="none" xmlns="http://www.w3.org/2000/svg">
<path fill-rule="evenodd" clip-rule="evenodd" d="M159.108 60.1338L159.445 60.4714C160.008 61.2022 160.543 62.0087 161.049 62.8902C162.118 64.8223 163.065 67.0729 163.89 69.642C164.528 71.6116 164.988 73.5531 165.269 75.4669C165.681 78.4297 165.691 81.0935 165.297 83.4563C165.259 83.7746 165.147 84.1125 164.959 84.4697C164.697 84.8814 164.443 85.0509 164.2 84.9748C163.806 84.8629 163.684 84.2715 163.834 83.2035C164.228 80.8584 164.238 78.345 163.863 75.664C163.6 73.7879 163.206 71.8934 162.681 69.9812C162.043 67.6361 161.265 65.3762 160.346 63.2007L159.221 60.6123L159.108 60.1338ZM146.363 66.2389C146.157 66.0325 146.054 65.9014 146.054 65.8445L146.504 66.0694C146.992 66.3508 147.283 66.5286 147.376 66.6043L148.839 67.8705C150.358 69.3706 151.746 71.4334 153.003 74.06C153.903 75.8976 154.634 77.7921 155.197 79.7427C156.023 82.5376 156.501 85.1814 156.632 87.6764C156.669 87.9947 156.632 88.3424 156.52 88.7172C156.388 89.205 156.182 89.439 155.901 89.4205C155.638 89.4021 155.441 89.1678 155.31 88.7172C155.272 88.6238 155.216 88.3055 155.141 87.7611C155.029 85.5107 154.597 82.9685 153.847 80.1363C153.303 78.243 152.647 76.3756 151.878 74.5384C150.715 71.9131 149.514 69.8399 148.277 68.3203L147.939 67.8983L146.363 66.2389ZM191.01 71.6116C190.879 71.7996 190.691 71.9966 190.448 72.2031L189.491 73.3569C188.384 74.7063 187.315 76.3296 186.284 78.223C185.534 79.6111 184.877 81.0465 184.314 82.5273C183.545 84.5337 182.983 86.5224 182.626 88.4914C182.476 89.3737 182.176 89.7862 181.726 89.7297C181.425 89.7112 181.238 89.5048 181.163 89.1107C181.107 88.8293 181.107 88.5381 181.163 88.2379C181.538 86.175 182.148 84.0928 182.992 81.9923C183.554 80.6418 184.295 79.1688 185.214 77.5753C186.414 75.6247 187.672 74.0484 188.984 72.8491L190.166 71.8643L190.869 71.4424L191.263 71.2729L191.01 71.6116ZM180.123 72.3719C180.535 71.7517 180.948 71.2094 181.361 70.7403L182.177 69.9809L182.655 69.6995V69.8113C182.637 69.9047 182.589 70.0452 182.515 70.2332L181.276 73.0183C180.433 75.1754 179.842 77.6143 179.504 80.333C179.016 84.1597 179.063 88.9794 179.645 94.7944C179.719 96.0131 179.335 96.6602 178.491 96.7348C178.003 96.7909 177.628 96.5852 177.366 96.1158C177.159 95.816 177.047 95.4686 177.028 95.075C176.691 91.8112 176.56 88.9516 176.634 86.4946C176.69 84.1508 176.916 81.9646 177.309 79.9398C177.891 76.9013 178.829 74.3795 180.123 72.3724L180.123 72.3719ZM177.253 65.8445L177.028 66.5203L175.228 69.7555C174.402 71.2556 173.812 72.3809 173.455 73.1317C173.23 73.5627 172.892 74.3135 172.443 75.3822L171.458 78.1955C170.708 80.4833 170.182 82.9217 169.882 85.5102C169.564 88.4169 169.526 91.718 169.77 95.4129C169.826 95.8635 169.788 96.294 169.657 96.7077C169.582 96.9318 169.488 97.1296 169.376 97.298C175.302 97.3541 180.047 97.4487 183.611 97.5794C183.593 97.5421 183.583 97.5147 183.583 97.495C183.527 97.3082 183.498 97.1018 183.498 96.8761L183.554 96.4267C184.061 94.2696 184.961 91.7848 186.255 88.9715C187.099 87.1889 188.065 85.4549 189.153 83.7668C190.616 81.4402 192.097 79.5182 193.598 77.9997C194.441 77.1559 195.191 76.5644 195.848 76.2273L196.356 76.0569L196.131 76.5354C196.075 76.6484 195.568 77.4176 194.611 78.8436C193.355 80.7942 192.173 82.8194 191.067 84.9196C190.166 86.5511 189.332 88.2584 188.562 90.0399C187.381 92.8159 186.575 95.1328 186.143 96.99L186.031 97.3833C185.974 97.4951 185.918 97.6082 185.862 97.7208L189.716 97.9457L185.159 98.2832C184.99 98.3393 184.793 98.3594 184.568 98.3393H184.483C179.213 98.5273 171.138 98.6494 160.261 98.7051H160.177H151.568C149.824 98.7051 148.952 98.4524 148.952 97.9457C148.952 97.6831 149.307 97.4865 150.021 97.3542C150.509 97.2608 151.024 97.2137 151.568 97.2137H151.905V97.1862C151.549 92.4785 150.78 88.3428 149.598 84.7796C149.13 83.3167 148.276 81.2629 147.038 78.6192C146.401 77.4006 145.997 76.6027 145.829 76.2278L145.716 75.7215C145.772 75.7215 145.922 75.8059 146.166 75.9743C146.804 76.4621 147.46 77.1097 148.136 77.9159C149.598 79.7343 150.79 81.761 151.708 83.9919C152.402 85.68 152.984 87.5188 153.453 89.5067C153.921 91.6076 154.287 94.0826 154.55 96.9332V97.2146C156.144 97.2146 157.682 97.2248 159.164 97.2433C159.126 96.9807 159.117 96.6714 159.136 96.315C159.173 95.9402 159.192 95.6961 159.192 95.5842C159.642 91.4016 159.427 86.9378 158.545 82.1919C157.963 79.0038 157.072 75.6924 155.872 72.2609C154.296 67.8726 152.496 64.0836 150.47 60.8962C150.264 60.5017 149.945 59.9958 149.514 59.3765L148.754 58.1947C148.286 57.5758 147.947 57.0981 147.742 56.7606C147.442 56.3477 147.291 56.0946 147.291 56C147.366 56 147.619 56.1605 148.051 56.4792C148.557 56.9102 149.007 57.3132 149.401 57.6876L150.386 58.7297C150.93 59.3294 151.333 59.818 151.596 60.1925C153.997 63.1938 156.125 66.9718 157.982 71.5301C159.332 74.9063 160.354 78.3192 161.048 81.7695C162.023 86.7399 162.286 91.4383 161.836 95.8652C161.836 96.2027 161.723 96.6619 161.498 97.2432C163.674 97.2432 165.747 97.2617 167.716 97.2993C167.641 97.1875 167.565 97.0552 167.491 96.9061C167.304 96.5312 167.182 96.0991 167.125 95.6112C166.844 91.8234 166.928 88.3338 167.378 85.1457C167.753 82.464 168.41 79.8939 169.348 77.4378L170.614 74.5401C171.42 73.0585 171.852 72.2794 171.908 72.2052C172.527 71.1734 173.268 70.1055 174.131 68.9987C175.031 67.8546 175.885 66.935 176.691 66.2415L177.253 65.8445ZM180.432 67.5046C181.202 66.6235 181.699 66.0418 181.923 65.7605C182.111 65.5725 182.42 65.2813 182.852 64.8876L183.33 64.5501L180.995 67.9262C179.42 70.3648 178.051 72.99 176.888 75.8033C175.913 78.1661 175.153 80.4542 174.609 82.667C173.84 85.9681 173.522 89.0813 173.653 92.0072C173.728 93.3577 173.559 94.0709 173.146 94.1458C172.865 94.202 172.621 93.9488 172.415 93.3864C172.264 92.9358 172.18 92.5135 172.162 92.1202C172.011 88.9694 172.368 85.6968 173.231 82.3011C173.85 79.9383 174.684 77.6026 175.735 75.2964C177.085 72.3532 178.651 69.7554 180.432 67.5045L180.432 67.5046Z" fill="black" fill-opacity="0.6"/>
<path fill-rule="evenodd" clip-rule="evenodd" d="M61.0975 32.9722L61.2836 33.2149C61.5938 33.7404 61.8885 34.3203 62.1676 34.9541C62.7569 36.3433 63.2789 37.9614 63.7338 39.8087C64.0852 41.2248 64.3387 42.6208 64.4936 43.9968C64.721 46.127 64.7262 48.0423 64.5092 49.7412C64.4884 49.97 64.4263 50.213 64.3232 50.4698C64.1784 50.7658 64.0387 50.8877 63.9045 50.833C63.6873 50.7525 63.6201 50.3273 63.7029 49.5594C63.9201 47.8733 63.9253 46.0662 63.7185 44.1384C63.5738 42.7895 63.3565 41.4274 63.0671 40.0525C62.7157 38.3664 62.2865 36.7415 61.7801 35.1773L61.1599 33.3162L61.0975 32.9722ZM54.0728 37.3618C53.959 37.2134 53.9023 37.1191 53.9023 37.0782L54.1505 37.2399C54.4194 37.4422 54.5795 37.5701 54.6312 37.6245L55.4375 38.5349C56.2749 39.6135 57.0399 41.0967 57.7326 42.9852C58.2289 44.3064 58.6319 45.6686 58.9422 47.0711C59.3971 49.0806 59.6609 50.9815 59.7331 52.7754C59.7536 53.0043 59.7331 53.2543 59.671 53.5238C59.5987 53.8745 59.4849 54.0427 59.3298 54.0295C59.1853 54.0162 59.0767 53.8477 59.0042 53.5238C58.9835 53.4566 58.9525 53.2277 58.9112 52.8363C58.8491 51.2183 58.6114 49.3905 58.1979 47.3541C57.8981 45.9928 57.5364 44.6501 57.1123 43.3291C56.4715 41.4415 55.8097 39.951 55.1274 38.8583L54.9413 38.5549L54.0728 37.3618ZM78.6827 41.2248C78.6104 41.36 78.5068 41.5016 78.3724 41.6501L77.8452 42.4797C77.2351 43.4499 76.6459 44.6171 76.0773 45.9784C75.6639 46.9765 75.3019 48.0085 74.9917 49.0732C74.5677 50.5158 74.2576 51.9457 74.0612 53.3614C73.9783 53.9958 73.8131 54.2924 73.5649 54.2518C73.3992 54.2385 73.296 54.0901 73.2547 53.8067C73.2237 53.6044 73.2237 53.395 73.2547 53.1791C73.4615 51.6959 73.7975 50.1989 74.2626 48.6886C74.5728 47.7176 74.9809 46.6584 75.4877 45.5127C76.1493 44.1102 76.8422 42.9769 77.5657 42.1145L78.2171 41.4065L78.6048 41.1031L78.822 40.9812L78.6827 41.2248ZM72.6814 41.7714C72.9088 41.3255 73.1364 40.9356 73.3637 40.5984L73.8135 40.0523L74.0772 39.85V39.9304C74.067 39.9976 74.0408 40.0986 73.9997 40.2338L73.3172 42.2362C72.8521 43.7872 72.5263 45.5407 72.3402 47.4955C72.0713 50.2469 72.0973 53.7123 72.4176 57.8933C72.459 58.7695 72.2472 59.2348 71.7819 59.2884C71.5129 59.3288 71.3061 59.1809 71.1616 58.8434C71.0478 58.6278 70.9857 58.3781 70.9756 58.0951C70.7895 55.7484 70.7173 53.6923 70.7584 51.9257C70.7893 50.2405 70.9135 48.6686 71.1305 47.2128C71.4511 45.0281 71.9679 43.2149 72.6814 41.7718L72.6814 41.7714ZM71.0996 37.0782L70.9756 37.5642L69.983 39.8903C69.5281 40.9689 69.2025 41.7779 69.006 42.3178C68.882 42.6276 68.6958 43.1675 68.4479 43.9358L67.9051 45.9586C67.4916 47.6036 67.202 49.3568 67.0367 51.2179C66.8612 53.3079 66.8404 55.6814 66.9746 58.338C67.0055 58.662 66.9847 58.9715 66.9125 59.269C66.8712 59.4301 66.8195 59.5723 66.7574 59.6934C70.0241 59.7338 72.6396 59.8018 74.604 59.8957C74.5938 59.8689 74.5884 59.8492 74.5884 59.8351C74.5575 59.7007 74.5419 59.5523 74.5419 59.39L74.5728 59.0669C74.8519 57.516 75.3482 55.7294 76.0615 53.7066C76.5266 52.4249 77.0593 51.1782 77.6587 49.9644C78.465 48.2916 79.2817 46.9097 80.1087 45.8179C80.5739 45.2112 80.9873 44.7859 81.3492 44.5435L81.6289 44.421L81.505 44.765C81.474 44.8463 81.1947 45.3994 80.6675 46.4246C79.975 47.8271 79.3236 49.2832 78.7136 50.7933C78.2173 51.9664 77.7573 53.1939 77.3333 54.4748C76.6819 56.4708 76.2376 58.1366 75.9998 59.4719L75.9377 59.7547C75.9068 59.8351 75.8756 59.9164 75.8447 59.9974L77.9691 60.1591L75.457 60.4018C75.364 60.4421 75.2554 60.4565 75.1314 60.4421H75.0849C72.1797 60.5773 67.729 60.6651 61.7332 60.7051H61.6867H56.9415C55.9801 60.7051 55.4994 60.5234 55.4994 60.1591C55.4994 59.9703 55.6956 59.8289 56.0887 59.7338C56.3577 59.6667 56.6417 59.6328 56.9415 59.6328H57.1276V59.613C56.9314 56.2281 56.5074 53.2546 55.8559 50.6926C55.5976 49.6408 55.1271 48.1641 54.4448 46.2633C54.0934 45.3871 53.8711 44.8134 53.778 44.5439L53.7159 44.1798C53.7469 44.1798 53.8297 44.2405 53.9641 44.3616C54.3154 44.7123 54.6774 45.178 55.0497 45.7576C55.856 47.065 56.5126 48.5223 57.0191 50.1263C57.4015 51.34 57.7221 52.6621 57.9804 54.0914C58.2388 55.602 58.4404 57.3815 58.5853 59.4311V59.6334C59.4639 59.6334 60.3119 59.6408 61.1286 59.654C61.1079 59.4652 61.1029 59.2429 61.113 58.9866C61.1338 58.7171 61.144 58.5416 61.144 58.4612C61.3921 55.4538 61.2734 52.2444 60.7872 48.8321C60.4668 46.5398 59.9755 44.1589 59.3139 41.6917C58.4455 38.5364 57.453 35.8121 56.3365 33.5204C56.2227 33.2368 56.047 32.873 55.8092 32.4277L55.3906 31.578C55.1323 31.133 54.9458 30.7896 54.8325 30.5469C54.6672 30.25 54.5843 30.068 54.5843 30C54.6257 30 54.7652 30.1154 55.003 30.3446C55.282 30.6544 55.5302 30.9442 55.7474 31.2134L56.2901 31.9626C56.59 32.3938 56.8122 32.7452 56.9569 33.0144C58.2803 35.1723 59.4534 37.8888 60.477 41.1662C61.2214 43.5937 61.7847 46.0476 62.1673 48.5284C62.7046 52.1021 62.8496 55.4802 62.6014 58.6632C62.6014 58.9059 62.5394 59.2361 62.4154 59.654C63.6148 59.654 64.757 59.6673 65.8424 59.6944C65.8011 59.6139 65.7596 59.5188 65.7185 59.4116C65.6153 59.1421 65.548 58.8314 65.5168 58.4806C65.3617 55.7572 65.4082 53.2481 65.6564 50.9559C65.8632 49.0277 66.2249 47.1798 66.742 45.4138L67.4399 43.3304C67.8843 42.2651 68.1222 41.7049 68.1532 41.6516C68.4944 40.9097 68.9028 40.1419 69.3783 39.3461C69.8746 38.5235 70.3451 37.8623 70.7895 37.3637L71.0996 37.0782ZM72.8519 38.2719C73.2759 37.6383 73.5499 37.2201 73.6738 37.0178C73.777 36.8826 73.9477 36.6733 74.1854 36.3902L74.4492 36.1475L73.1622 38.575C72.2938 40.3283 71.5392 42.2159 70.8982 44.2386C70.3608 45.9375 69.9419 47.5826 69.6421 49.1736C69.2181 51.5471 69.0426 53.7856 69.1149 55.8893C69.1562 56.8603 69.0632 57.3731 68.8358 57.427C68.6807 57.4673 68.5461 57.2853 68.4325 56.8809C68.3497 56.557 68.3032 56.2533 68.293 55.9705C68.2102 53.7051 68.4068 51.3521 68.8823 48.9106C69.2235 47.2117 69.6835 45.5324 70.2626 43.8742C71.0066 41.758 71.8698 39.8902 72.852 38.2718L72.8519 38.2719Z" fill="black" fill-opacity="0.6"/>
<path fill-rule="evenodd" clip-rule="evenodd" d="M52.7399 127.328L53.3383 127.927C54.336 129.222 55.2837 130.652 56.1812 132.215C58.0766 135.64 59.7553 139.629 61.2185 144.184C62.3485 147.675 63.1639 151.117 63.6621 154.51C64.3934 159.762 64.4101 164.484 63.7122 168.673C63.6454 169.237 63.4457 169.836 63.1138 170.469C62.6484 171.199 62.1989 171.5 61.7675 171.365C61.069 171.166 60.8526 170.118 61.1191 168.225C61.8176 164.068 61.8343 159.612 61.1692 154.859C60.7037 151.533 60.0051 148.175 59.0742 144.785C57.9442 140.628 56.5638 136.622 54.9351 132.765L52.9404 128.176L52.7399 127.328ZM30.1476 138.151C29.7817 137.785 29.5994 137.553 29.5994 137.452L30.3974 137.85C31.2623 138.349 31.7771 138.664 31.9434 138.799L34.5366 141.043C37.2299 143.703 39.6902 147.359 41.9179 152.016C43.514 155.273 44.8102 158.632 45.808 162.09C47.2712 167.044 48.1194 171.731 48.3517 176.154C48.4178 176.718 48.3517 177.335 48.152 177.999C47.9196 178.864 47.5536 179.279 47.0548 179.246C46.59 179.213 46.2407 178.798 46.0076 177.999C45.9409 177.834 45.8414 177.269 45.7085 176.304C45.5088 172.315 44.7441 167.808 43.4145 162.787C42.4502 159.431 41.2869 156.121 39.9231 152.864C37.8623 148.21 35.7338 144.535 33.5394 141.841L32.941 141.093L30.1476 138.151ZM109.295 147.675C109.063 148.009 108.73 148.358 108.298 148.724L106.602 150.769C104.64 153.161 102.745 156.039 100.916 159.396C99.5867 161.856 98.4227 164.401 97.4249 167.026C96.0612 170.583 95.0641 174.108 94.4324 177.599C94.1659 179.163 93.6343 179.894 92.8363 179.794C92.3033 179.761 91.9714 179.395 91.8385 178.697C91.739 178.198 91.739 177.682 91.8385 177.149C92.5037 173.492 93.5842 169.801 95.0801 166.078C96.0778 163.684 97.3901 161.072 99.0202 158.247C101.148 154.79 103.376 151.995 105.703 149.869L107.798 148.123L109.045 147.375L109.743 147.075L109.295 147.675ZM89.9948 149.023C90.726 147.924 91.458 146.962 92.1892 146.131L93.6357 144.784L94.4838 144.286V144.484C94.4511 144.65 94.3669 144.899 94.2347 145.232L92.0396 150.169C90.5437 153.993 89.4959 158.316 88.8975 163.136C88.0326 169.92 88.1161 178.464 89.1465 188.772C89.2794 190.933 88.5983 192.08 87.1018 192.212C86.2369 192.312 85.5718 191.947 85.107 191.115C84.7411 190.583 84.5414 189.968 84.5087 189.27C83.9103 183.484 83.6779 178.415 83.8101 174.059C83.9096 169.904 84.309 166.029 85.0069 162.439C86.038 157.053 87.7002 152.582 89.9948 149.024L89.9948 149.023ZM84.9074 137.452L84.5087 138.65L81.3165 144.385C79.8533 147.044 78.8062 149.039 78.1744 150.37C77.7757 151.134 77.1766 152.465 76.3793 154.36L74.6336 159.347C73.304 163.403 72.3724 167.725 71.8408 172.314C71.2765 177.467 71.2097 183.319 71.6411 189.869C71.7406 190.668 71.6738 191.431 71.4414 192.164C71.3085 192.562 71.1422 192.912 70.9425 193.211C81.4486 193.31 89.8603 193.478 96.1781 193.71C96.1454 193.643 96.128 193.595 96.128 193.56C96.0285 193.229 95.9784 192.863 95.9784 192.463L96.0779 191.666C96.9754 187.842 98.5715 183.437 100.865 178.45C102.361 175.29 104.074 172.216 106.002 169.223C108.596 165.099 111.222 161.692 113.882 159C115.378 157.504 116.707 156.455 117.871 155.858L118.771 155.556L118.372 156.404C118.273 156.604 117.375 157.968 115.679 160.496C113.452 163.954 111.357 167.544 109.395 171.267C107.799 174.159 106.319 177.186 104.956 180.344C102.861 185.265 101.432 189.372 100.667 192.665L100.467 193.362C100.368 193.56 100.268 193.76 100.168 193.96L107.001 194.359L98.9215 194.957C98.6223 195.057 98.273 195.092 97.8743 195.057H97.7247C88.3813 195.39 74.0673 195.606 54.7844 195.705H54.6348H39.3738C36.2819 195.705 34.7358 195.257 34.7358 194.359C34.7358 193.893 35.3669 193.545 36.6312 193.31C37.496 193.145 38.4096 193.061 39.3738 193.061H39.9722V193.013C39.3411 184.667 37.9774 177.335 35.8824 171.019C35.0517 168.426 33.5384 164.785 31.344 160.098C30.2141 157.938 29.4989 156.523 29.1997 155.859L29 154.961C29.0995 154.961 29.366 155.111 29.7981 155.409C30.928 156.274 32.092 157.422 33.2895 158.851C35.8827 162.075 37.9943 165.668 39.6231 169.622C40.8532 172.615 41.8843 175.875 42.7151 179.399C43.5458 183.123 44.1943 187.511 44.6604 192.564V193.063C47.4859 193.063 50.2134 193.081 52.8399 193.114C52.7731 192.648 52.7571 192.1 52.7898 191.468C52.8566 190.804 52.8893 190.371 52.8893 190.173C53.6874 182.758 53.3054 174.845 51.742 166.431C50.7116 160.78 49.1315 154.909 47.0037 148.826C44.2109 141.047 41.0187 134.33 37.4278 128.68C37.0619 127.98 36.4969 127.084 35.7323 125.986L34.3859 123.891C33.5552 122.793 32.9555 121.947 32.5909 121.348C32.0593 120.616 31.7928 120.168 31.7928 120C31.9257 120 32.3745 120.285 33.1391 120.85C34.0367 121.613 34.8347 122.328 35.5332 122.992L37.2789 124.839C38.2432 125.902 38.9578 126.768 39.4232 127.432C43.6793 132.753 47.4524 139.45 50.7441 147.531C53.1382 153.516 54.95 159.566 56.1803 165.683C57.9085 174.494 58.3747 182.823 57.5767 190.671C57.5767 191.269 57.377 192.083 56.9783 193.114C60.8356 193.114 64.5092 193.146 68 193.213C67.8671 193.015 67.7335 192.78 67.6013 192.516C67.2694 191.851 67.053 191.085 66.9528 190.22C66.454 183.506 66.6036 177.319 67.4016 171.668C68.0668 166.914 69.2301 162.358 70.893 158.004L73.1377 152.867C74.5668 150.24 75.3321 148.859 75.4316 148.728C76.5289 146.898 77.8424 145.005 79.3717 143.043C80.9678 141.015 82.4811 139.385 83.9101 138.156L84.9074 137.452ZM90.5432 140.395C91.9069 138.833 92.7878 137.802 93.1864 137.303C93.5183 136.97 94.0673 136.453 94.8319 135.755L95.6801 135.157L91.541 141.142C88.7481 145.465 86.3213 150.119 84.2598 155.106C82.5315 159.295 81.1844 163.351 80.2201 167.274C78.8564 173.126 78.2922 178.645 78.5245 183.831C78.6574 186.226 78.3582 187.49 77.627 187.623C77.1281 187.722 76.6953 187.273 76.3301 186.276C76.0636 185.478 75.914 184.729 75.8813 184.032C75.6148 178.446 76.2473 172.645 77.7766 166.625C78.8739 162.436 80.3531 158.296 82.2157 154.208C84.6085 148.99 87.3846 144.385 90.5433 140.394L90.5432 140.395Z" fill="#524C45"/>
</svg>
