<svg width="226" height="226" viewBox="0 0 226 226" fill="none" xmlns="http://www.w3.org/2000/svg">
<path d="M133.181 113.76C135.062 113.76 137.12 112.755 138.447 111.293C140.52 109.024 141.376 106.433 142.054 103.453C142.698 100.44 143.052 96.8383 143.171 92.1775C143.194 91.2769 143.063 90.413 142.813 89.615C142.69 89.2199 142.535 88.8427 142.354 88.4845C141.363 86.5191 139.564 85.1708 137.473 85.0993C134.233 84.99 131.529 87.9799 131.436 91.7801C131.424 92.3147 131.408 92.8214 131.388 93.3114C131.358 94.0491 131.319 94.7344 131.271 95.3728C131.232 95.9062 131.189 96.4051 131.141 96.8694C131.013 98.1294 130.861 99.1428 130.712 99.8917C130.457 99.9609 130.206 100.055 129.962 100.163C129.861 99.3783 129.802 98.8972 129.802 98.8972C129.802 98.8972 129.868 98.4028 129.957 97.6082L122.245 102.402C122.632 103.28 123.024 104.225 123.422 105.251C123.984 106.681 124.692 107.985 125.643 109.292C126.584 110.541 127.713 111.824 129.515 112.819C129.563 112.846 129.607 112.876 129.655 112.901H129.654C130.403 113.286 131.302 113.597 132.316 113.708C132.559 113.734 132.803 113.76 133.059 113.76H133.181L133.181 113.76Z" fill="black"/>
<path d="M75.3951 154.329C74.122 161.153 72.8681 169.265 71.7636 178.807C70.9714 185.653 75.0638 191.956 80.9053 192.885C81.391 192.962 81.8747 193 82.3517 193C87.6104 193.001 92.1903 188.446 92.9159 182.17C93.9471 173.259 95.105 165.81 96.2485 159.673C96.4932 158.36 95.8991 157.101 94.7765 155.972C91.266 152.443 82.5727 150.208 78.0965 151.672C76.6501 152.144 75.6428 153.002 75.3952 154.33L75.3951 154.329ZM83.2751 170.399L75.8682 169.249L76.2424 165.942L83.6493 167.091L83.2751 170.399ZM85.2594 157.964L84.8557 161.267L77.7003 160.068L77.4594 160.028L77.5375 159.391L77.8631 156.724L85.2594 157.964Z" fill="black"/>
<path d="M107.521 155.971C106.398 157.099 105.803 158.358 106.049 159.671C107.193 165.808 108.35 173.257 109.382 182.168C110.107 188.445 114.687 192.999 119.947 192.998C120.424 192.998 120.907 192.96 121.393 192.883C127.235 191.954 131.326 185.651 130.535 178.805C129.431 169.263 128.176 161.152 126.903 154.328C126.656 153.001 125.648 152.142 124.202 151.669C119.725 150.205 111.032 152.441 107.521 155.97L107.521 155.971ZM126.427 169.248L119.02 170.398L118.647 167.09L126.054 165.942L126.427 169.248ZM124.432 156.724L124.758 159.391L124.835 160.026L124.594 160.067L117.439 161.265L117.036 157.963L124.432 156.724Z" fill="black"/>
<path d="M93.7272 119.848L86.2233 124.368L85.8148 124.614C85.751 124.737 85.6805 124.854 85.6205 124.98L85.6196 124.979C85.2111 125.846 81.8499 133.291 78.3679 150.308C79.2582 150.083 80.2789 149.962 81.4282 149.962C85.8806 149.962 91.8477 151.789 95.045 154.634C96.4666 147.739 97.8177 142.808 98.8317 139.565C99.443 137.611 99.9324 136.267 100.241 135.47C100.395 135.073 100.504 134.811 100.561 134.68C100.575 134.648 100.586 134.624 100.593 134.607C100.819 134.121 100.996 133.621 101.147 133.117C101.295 133.612 101.468 134.102 101.687 134.578C101.688 134.58 101.69 134.584 101.694 134.592C101.846 134.938 104.406 140.848 107.249 154.634C110.446 151.788 116.413 149.962 120.865 149.962C122.014 149.962 123.034 150.083 123.925 150.308C120.443 133.289 117.082 125.846 116.673 124.979C116.509 124.63 116.324 124.301 116.131 123.985L119.201 104.29L108.011 111.245L93.7272 119.848Z" fill="black"/>
<path d="M101.149 82.3936C105.995 82.3936 110.253 81.1626 112.709 77.9673C114.109 76.1448 114.925 73.6874 114.925 70.4497C114.925 67.0971 114.053 63.3894 112.561 60.0669C109.769 60.6461 104.691 61.587 101.15 61.587C97.6085 61.587 92.5287 60.6461 89.737 60.0669C88.245 63.3894 87.3728 67.0968 87.3728 70.4497C87.3728 73.6885 88.1898 76.1462 89.5894 77.9673C92.046 81.1627 96.3041 82.3936 101.15 82.3936H101.149ZM105.07 68.0577C105.07 68.0577 107.647 73.7051 106.957 77.6245C106.316 77.3577 105.29 77.1412 104.037 77.0073C104.331 75.3544 105.228 70.0845 105.07 68.0576L105.07 68.0577ZM102.157 72.7685C102.157 72.7685 103.171 74.9906 103.218 76.9336C102.741 76.899 102.24 76.8767 101.721 76.8667C101.919 75.6803 102.225 73.6478 102.157 72.7684L102.157 72.7685ZM100.142 72.7685C100.073 73.648 100.38 75.6802 100.578 76.8668C100.059 76.8768 99.5584 76.8991 99.0814 76.9337C99.128 74.9918 100.142 72.7686 100.142 72.7686L100.142 72.7685ZM97.2275 68.0577C97.0704 70.0845 97.9664 75.3545 98.2606 77.0073C97.0076 77.1401 95.9821 77.3567 95.3412 77.6245C94.6509 73.7048 97.2274 68.0577 97.2274 68.0577L97.2275 68.0577Z" fill="black"/>
<path d="M101.15 60.3368C104.441 60.3368 109.184 59.4841 112.005 58.9093C112.439 58.8212 112.826 58.7397 113.157 58.6683C113.915 58.5053 114.372 58.3982 114.372 58.3982C114.372 58.3982 114.113 57.473 113.576 56.0924C127.841 51.0041 120.248 33 120.248 33C119.084 45.7442 112.266 47.4719 108.341 47.3816C106.432 45.4151 104.047 43.9776 101.149 43.9776C98.2503 43.9776 95.8662 45.4162 93.9571 47.3816C90.0332 47.472 83.2159 45.7443 82.0512 33C82.0512 33 74.4578 51.0044 88.723 56.0924C88.1869 57.4741 87.928 58.3982 87.928 58.3982C87.928 58.3982 88.385 58.5053 89.1429 58.6683C89.4733 58.7386 89.8609 58.8212 90.2941 58.9093C93.1143 59.483 97.859 60.3368 101.15 60.3368H101.15Z" fill="black"/>
<path d="M69.7982 123.379C70.2343 125.107 70.7342 126.889 71.3083 128.735C71.6006 129.674 72.051 130.489 72.608 131.163C72.8775 131.489 73.1707 131.784 73.4869 132.04C74.459 132.827 75.6245 133.262 76.8251 133.262C77.4925 133.262 78.1714 133.128 78.8341 132.845C81.1841 131.84 82.6476 129.262 82.6883 126.498C82.695 126.05 82.6645 125.599 82.5931 125.149C82.5341 124.773 82.4541 124.396 82.3389 124.024C81.4981 121.321 80.8592 118.85 80.386 116.592C80.2965 116.164 80.2108 115.742 80.1327 115.328C79.4957 111.96 79.2406 109.103 79.2425 106.712V106.71C79.2482 102.865 79.8728 100.224 80.664 98.2756C81.0106 97.433 81.402 96.7142 81.8133 96.0758L84.3898 112.598L103.164 100.562L116.013 92.5759L121.567 89.1228L126.895 85.8102C125.707 84.2154 124.542 82.9262 123.423 81.894C121.402 80.0145 119.537 79.0402 118.139 78.5514C117.476 78.1775 116.759 77.9655 116.006 77.9655H114.074C113.948 78.1675 113.814 78.3628 113.675 78.5547C112.918 79.5983 111.98 80.4878 110.867 81.2166C108.434 82.8103 105.173 83.6418 101.147 83.6418C96.7964 83.6418 93.3373 82.6708 90.854 80.8148C90.3084 79.9632 89.6038 79.2757 88.7992 78.7992C88.5935 78.5324 88.4003 78.2534 88.2193 77.9644L86.2893 77.9655C85.7885 77.9655 85.3048 78.0659 84.8401 78.2367C83.7632 78.5135 80.027 79.6005 76.048 83.3806C73.877 85.4576 71.6765 88.404 70.078 92.3214C68.4717 96.2354 67.4976 101.061 67.5025 106.708C67.5044 111.273 68.1223 116.382 69.4953 122.146C69.5925 122.555 69.6943 122.965 69.7981 123.379L69.7982 123.379Z" fill="black"/>
<path d="M87.6923 122.08L90.8687 120.167L107.513 110.141L119.448 102.723L121.747 101.293L130.11 96.0955C130.226 94.8288 130.339 93.2752 130.371 91.7495C130.374 91.6268 130.387 91.5074 130.395 91.3846C130.657 87.1269 133.629 83.8444 137.303 83.8444C137.369 83.8444 137.438 83.8455 137.507 83.8488C139.99 83.9325 142.128 85.5497 143.296 87.8991L151.382 82.8734L153.365 86.5285L155.132 85.4303L156.758 89.0251C160.361 96.9882 158.531 107.195 153.293 112.718C160.715 120.574 178.432 112.207 178.432 112.207L162.339 76.6386C164.56 75.0382 165.369 71.6755 164.13 68.9378C162.892 66.2013 160.062 65.0996 157.687 66.3564L156.574 63.8954L154.766 65.0193L151.483 56.7402L143.156 61.9165L147.162 69.7467L144.992 71.0949L146.975 74.75L127.601 86.7934L116.893 93.4473L103.677 101.663L84.5932 113.897L81.3616 115.969C81.8529 118.371 82.507 120.911 83.343 123.597C83.4411 123.913 83.5163 124.235 83.5801 124.557L86.0252 123.084L87.6923 122.08Z" fill="#F3A549"/>
<path d="M71.624 131.756C71.0593 131.009 70.6061 130.135 70.3043 129.163C69.7549 127.396 69.2683 125.675 68.837 123.995L48 137.354L51.0689 144.138L71.624 131.756Z" fill="#F3A549"/>
</svg>
